# xmcd
#
# Track frame offsets: 
#        150
#        13271
#        30833
#        42640
#        56211
#        68157
#        81457
#        92440
#        111957
#        130924
#
# Disc length: 1958 seconds
#
# Revision: 0
# Processed by: cddbd v1.5.2PL0 Copyright (c) Steve Scherf et al.
# Submitted via: ExactAudioCopy v0.99pb4
#
DISCID=8607a40a
DTITLE=Kate Rowe - The Simplest Of Things
DYEAR=2007
DGENRE=Easy Listening
TTITLE0=Family Outing
TTITLE1=Butterfly
TTITLE2=Catacombs
TTITLE3=Talk To You
TTITLE4=Don't Kiss Me
TTITLE5=Fred The Dog
TTITLE6=Kitchen Shop Romantic
TTITLE7=Jindabyne
TTITLE8=Safe
TTITLE9=The Frog
EXTD=
EXTT0=
EXTT1=
EXTT2=
EXTT3=
EXTT4=
EXTT5=
EXTT6=
EXTT7=
EXTT8=
EXTT9=
PLAYORDER=
